<svg t="1745239051577" class="icon" viewBox="0 0 1024 1024" version="1.1"
    xmlns="http://www.w3.org/2000/svg" p-id="1864" width="200" height="200">
    <path
        d="M504.45208357 26.71824755c-263.34919312 0-476.83711908 213.48792596-476.83711909 476.83711908s213.48792596 476.83711908 476.83711909 476.8371191 476.83711908-213.48792596 476.83711779-476.8371191S767.8012767 26.71824755 504.45208357 26.71824755zM94.36580322 676.77916517Q59.40410586 594.12104017 59.40410586 503.55536663q0-90.56567353 34.96169736-173.22379853 33.77755215-79.86068087 95.38967588-141.47280464 61.61212375-61.61212375 141.47280464-95.38967717Q413.88640875 58.5073889 504.45208357 58.5073889q90.56567353 0 173.22379854 34.96169739 79.86068087 33.77755215 141.47280463 95.38967717 61.61212375 61.61212375 95.3896759 141.47280464Q949.50006001 412.98969311 949.50006001 503.55536663q0 90.56567353-34.96169737 173.22221015-33.77755215 79.86227058-95.3896759 141.47439303-61.61212375 61.61212375-141.47280463 95.38967717Q595.0177571 948.60334436 504.45208357 948.60334436q-90.56567353 0-173.22221013-34.96169738-79.86227058-33.77755215-141.47439434-95.38967717-61.61212375-61.61212375-95.38967588-141.47280464z"
        fill="#fefefe" p-id="1865"></path>
    <path
        d="M313.71723542 385.14081556c0-151.42757481 122.75376958-274.18134308 274.18134309-274.18134308 151.42598512 0 274.18134308 122.75376958 274.18134309 274.18134308 0 151.42598512-122.75535797 274.18134308-274.18134309 274.18134308-151.42757481 0-274.18134308-122.75535797-274.18134309-274.18134308z"
        fill="#fefefe" p-id="1866"></path>
    <path
        d="M504.45208357 700.64804177c0-87.78253404 71.16317146-158.94570679 158.94570551-158.94570551s158.94570679 71.16317146 158.94570678 158.94570551-71.16317146 158.94570679-158.94570678 158.94570679-158.94570679-71.16317146-158.94570551-158.94570679zM103.90890375 542.49706496c0-48.72003846 39.49482864-88.21486711 88.21486711-88.21486711s88.21486711 39.49482864 88.21486581 88.21486711-39.49482864 88.21486711-88.21486581 88.21486711-88.21486711-39.49482864-88.21486711-88.21486711z"
        fill="#fefefe" p-id="1867"></path>
    <path
        d="M625.25081944 323.94671893c0-50.0361088 40.56294439-90.59905319 90.59905319-90.59905319s90.59905319 40.56294439 90.5990519 90.59905319-40.56294439 90.59905319-90.5990519 90.5990519-90.59905319-40.56294439-90.59905319-90.5990519z"
        fill="#fefefe" p-id="1868"></path>
</svg>